<?xml version="1.0" encoding="UTF-8" standalone="no"?>
<!-- Created with Inkscape (http://www.inkscape.org/) -->

<svg
   width="200mm"
   height="100mm"
   viewBox="0 0 200 100"
   version="1.1"
   id="svg1"
   inkscape:version="1.3 (0e150ed, 2023-07-21)"
   sodipodi:docname="logo.svg"
   inkscape:export-filename="logo.svg"
   inkscape:export-xdpi="96"
   inkscape:export-ydpi="96"
   xmlns:inkscape="http://www.inkscape.org/namespaces/inkscape"
   xmlns:sodipodi="http://sodipodi.sourceforge.net/DTD/sodipodi-0.dtd"
   xmlns="http://www.w3.org/2000/svg"
   xmlns:svg="http://www.w3.org/2000/svg">
  <sodipodi:namedview
     id="namedview1"
     pagecolor="#ffffff"
     bordercolor="#000000"
     borderopacity="0.25"
     inkscape:showpageshadow="2"
     inkscape:pageopacity="0.0"
     inkscape:pagecheckerboard="0"
     inkscape:deskcolor="#d1d1d1"
     inkscape:document-units="mm"
     inkscape:zoom="0.52144872"
     inkscape:cx="442.99658"
     inkscape:cy="294.37219"
     inkscape:window-width="1440"
     inkscape:window-height="872"
     inkscape:window-x="0"
     inkscape:window-y="0"
     inkscape:window-maximized="0"
     inkscape:current-layer="layer1" />
  <defs
     id="defs1" />
  <g
     inkscape:label="Layer 1"
     inkscape:groupmode="layer"
     id="layer1">
    <path
       d="m 45.453556,26.305371 v 35.18855 h 7.923031 v -35.18855 z m 133.044594,0 v 35.18855 h 7.92303 V 26.305371 Z M 29.607495,35.050057 c -3.656756,0 -6.460037,1.204333 -8.349361,3.822506 l -0.06098,-3.141411 h -7.61814 V 73.694727 H 21.38009 V 58.142704 c 2.255,2.7229 5.180464,4.031796 8.898165,4.031796 7.740133,0 12.310877,-5.498325 12.310877,-13.300481 0,-8.692334 -5.424342,-13.823962 -12.981637,-13.823962 z m 40.468331,0 c -9.629456,0 -13.042679,3.717805 -13.164571,9.058879 h 7.374744 c 0.365675,-2.303993 1.828148,-3.822506 5.423958,-3.822506 3.108242,0 5.058606,0.995007 5.058606,2.670638 0,1.780358 -1.097121,2.461366 -5.058606,2.932637 -7.983917,0.942543 -13.773836,1.780364 -13.773836,9.215975 0,4.189077 3.169311,7.06882 9.995255,7.06882 4.022431,0 7.191776,-1.204474 9.0811,-2.984831 0.06095,0.785452 0.243525,1.67589 0.487308,2.304252 h 7.374744 V 45.20861 c 0,-6.493069 -3.291137,-10.158553 -12.798702,-10.158553 z m 33.519914,0 c -4.814724,0 -7.861983,1.570901 -9.690361,4.450891 v -3.769796 h -7.557161 v 25.762769 h 7.92303 V 46.72738 c 0,-3.927259 2.010857,-5.916951 6.155182,-5.916951 3.77865,0 5.11958,1.099653 5.11958,5.079276 v 15.604216 h 7.98401 V 43.637646 c 0,-5.60289 -4.20536,-8.587589 -9.93428,-8.587589 z m 29.43697,0 c -3.65676,0 -6.46056,1.204333 -8.34988,3.822506 l -0.0605,-3.141411 h -7.61866 v 37.963575 h 7.80108 V 58.142704 c 2.25499,2.7229 5.18046,4.031796 8.89816,4.031796 7.74013,0 12.31139,-5.498325 12.31139,-13.300481 0,-8.692334 -5.42434,-13.823962 -12.98163,-13.823962 z m 29.19305,0 c -9.62946,0 -13.04268,3.717805 -13.16457,9.058879 h 7.37474 c 0.36567,-2.303993 1.82815,-3.822506 5.42396,-3.822506 3.10824,0 5.0586,0.995007 5.0586,2.670638 0,1.780358 -1.09712,2.461366 -5.0586,2.932637 -7.98392,0.942543 -13.77384,1.780364 -13.77384,9.215975 0,4.189077 3.16931,7.06882 9.99526,7.06882 4.02243,0 7.19177,-1.204474 9.0811,-2.984831 0.0609,0.785452 0.24352,1.67589 0.48731,2.304252 h 7.37474 V 45.20861 c 0,-6.493069 -3.29114,-10.158553 -12.7987,-10.158553 z M 27.779183,40.600623 c 3.961485,0 6.764962,3.194123 6.764962,7.802107 0,5.28871 -2.19405,7.959204 -6.82594,7.959204 -4.388107,0 -6.643006,-2.774892 -6.643006,-8.377783 0,-4.346167 2.925336,-7.383528 6.703984,-7.383528 z m 103.425207,0 c 3.96149,0 6.76497,3.194123 6.76497,7.802107 0,5.28871 -2.19405,7.959204 -6.82594,7.959204 -4.38811,0 -6.64301,-2.774892 -6.64301,-8.377783 0,-4.346167 2.92534,-7.383528 6.70398,-7.383528 z m -56.252893,8.273396 -0.06098,2.827735 c -0.06095,3.037081 -3.108432,5.602759 -7.191809,5.602759 -2.498783,0 -3.839559,-0.94248 -3.839559,-2.879928 0,-2.199265 1.462764,-3.298707 5.972762,-4.031795 2.925405,-0.471271 4.327287,-0.838046 5.119584,-1.518771 z m 92.149933,0 -0.061,2.827735 c -0.0609,3.037081 -3.10843,5.602759 -7.19181,5.602759 -2.49878,0 -3.83956,-0.94248 -3.83956,-2.879928 0,-2.199265 1.46277,-3.298707 5.97276,-4.031795 2.92541,-0.471271 4.32729,-0.838046 5.11959,-1.518771 z"
       style="font-size:56.492px;font-family:Coolvetica;-inkscape-font-specification:Coolvetica;stroke:#000000;stroke-width:2.27523;stroke-linecap:round;stroke-opacity:0.931818"
       id="path1" />
  </g>
</svg>
